<svg version="1" xmlns="http://www.w3.org/2000/svg" width="1344" height="1344" viewBox="0 0 1008.000000 1008.000000"><path d="M0 504v447h211v-46.3c0-25.4.1-168.8 0-318.6 0-149.8.2-272.2.5-272 5.5 4.9 79.5 79.6 79.5 80.2 0 .4.3.7.7.5.5-.2 11.8 10.8 25.3 24.4 13.5 13.7 24.3 24.8 24 24.8-.3 0 .2.4 1 1 2.7 1.7 15.7 15 15.2 15.5-.3.3-.1.5.5.5s4.1 3.2 7.9 7.1c3.8 3.9 36.6 36.8 72.8 73.1l66 66 12.4-12.6c6.9-6.9 12.8-12.6 13.2-12.6.5 0 1-.4 1.2-1 .5-1.4 29.9-31 30.8-31 .5 0 1-.4 1.2-1 .3-1 49.8-51 50.5-51 .4 0 4.3-3.9 4.3-4.4 0-.4 172.6-173.1 177.1-177.3l2.5-2.2v636.4l105.2.3 105.2.2V57H797.7L658 196.7c-76.9 76.9-141 140.9-142.4 142.2l-2.6 2.5-4.4-4.6-4.3-4.6-3.5 3.8c-2 2.1-4.1 4.1-4.7 4.4-.6.4-60.6-58.8-143.1-141.3L211 57H0v447z"/><path d="M454.8 626c0 .3-.2 73.5-.3 162.8l-.1 162.2 50-.2 50.1-.3v-325h-49.8c-27.3-.1-49.8.2-49.9.5z"/></svg>