<?xml version="1.0" standalone="no"?>
<!DOCTYPE svg PUBLIC "-//W3C//DTD SVG 20010904//EN"
 "http://www.w3.org/TR/2001/REC-SVG-20010904/DTD/svg10.dtd">
<svg version="1.0" xmlns="http://www.w3.org/2000/svg"
 width="1379.000000pt" height="1379.000000pt" viewBox="0 0 1379.000000 1379.000000"
 preserveAspectRatio="xMidYMid meet">
<metadata>
Created by potrace 1.11, written by Peter Selinger 2001-2013
</metadata>
<g transform="translate(0.000000,1379.000000) scale(0.100000,-0.100000)"
fill="#000000" stroke="none">
<path d="M4430 6905 l0 -3965 1515 0 1515 0 2 1349 3 1350 125 -216 c69 -118
134 -231 145 -252 11 -20 46 -79 77 -131 31 -52 65 -111 76 -130 35 -64 526
-911 739 -1275 35 -60 133 -229 217 -375 84 -146 159 -265 166 -265 7 0 82
119 166 265 84 146 182 315 218 375 35 61 202 349 371 640 169 292 320 552
336 578 16 27 29 50 29 52 0 2 28 50 61 107 34 57 71 119 81 138 11 19 82 141
157 270 l136 235 3 -1352 2 -1353 1515 0 1515 0 -2 3958 -3 3957 -1770 2
-1770 3 -19 -33 c-10 -17 -33 -59 -52 -92 -18 -34 -76 -135 -130 -225 -53 -91
-108 -185 -122 -210 -14 -25 -53 -93 -88 -153 -35 -59 -64 -109 -64 -112 0 -3
-16 -29 -35 -59 -19 -30 -35 -57 -35 -60 0 -3 -13 -26 -29 -53 -77 -128 -151
-254 -151 -259 0 -3 -16 -30 -35 -60 -19 -30 -35 -56 -35 -58 0 -2 -37 -66
-81 -142 -45 -77 -94 -160 -108 -185 -14 -25 -34 -57 -43 -70 l-18 -24 -17 24
c-10 13 -30 45 -44 70 -14 25 -63 108 -108 185 -44 76 -81 140 -81 142 0 2
-16 28 -35 58 -19 30 -35 57 -35 60 0 5 -74 131 -151 259 -16 27 -29 50 -29
53 0 3 -16 30 -35 60 -19 30 -35 56 -35 59 0 3 -29 53 -64 112 -35 60 -74 128
-88 153 -14 25 -69 119 -122 210 -54 90 -112 191 -130 225 -19 33 -42 75 -52
92 l-19 33 -1767 0 -1768 0 0 -3965z"/>
<path d="M470 6905 l0 -3955 1515 0 1515 0 0 3955 0 3955 -1515 0 -1515 0 0
-3955z"/>
</g>
</svg>
